<mxfile host="app.diagrams.net" agent="Mozilla/5.0 (Windows NT 10.0; Win64; x64) AppleWebKit/537.36 (KHTML, like Gecko) Chrome/136.0.0.0 Safari/537.36 Edg/136.0.0.0" version="26.2.14">
  <diagram name="Sayfa -1" id="OYNV3amuie94UCV6rpTZ">
    <mxGraphModel dx="1209" dy="1055" grid="0" gridSize="10" guides="1" tooltips="1" connect="1" arrows="1" fold="1" page="0" pageScale="1" pageWidth="827" pageHeight="1169" math="0" shadow="0">
      <root>
        <mxCell id="0" />
        <mxCell id="1" parent="0" />
        <mxCell id="wD7Xk6TjG6TiRgrZUIjb-1" value="Appointment&lt;div&gt;Service&lt;/div&gt;" style="ellipse;whiteSpace=wrap;html=1;aspect=fixed;fillColor=#b1ddf0;strokeColor=#10739e;" vertex="1" parent="1">
          <mxGeometry x="569" y="-371" width="134" height="134" as="geometry" />
        </mxCell>
        <mxCell id="wD7Xk6TjG6TiRgrZUIjb-13" style="edgeStyle=orthogonalEdgeStyle;rounded=0;orthogonalLoop=1;jettySize=auto;html=1;entryX=0;entryY=0.5;entryDx=0;entryDy=0;" edge="1" parent="1" source="wD7Xk6TjG6TiRgrZUIjb-2" target="wD7Xk6TjG6TiRgrZUIjb-10">
          <mxGeometry relative="1" as="geometry" />
        </mxCell>
        <mxCell id="wD7Xk6TjG6TiRgrZUIjb-2" value="&lt;b&gt;patientId&lt;/b&gt;" style="text;html=1;align=center;verticalAlign=middle;whiteSpace=wrap;rounded=0;" vertex="1" parent="1">
          <mxGeometry x="371" y="61" width="60" height="30" as="geometry" />
        </mxCell>
        <mxCell id="wD7Xk6TjG6TiRgrZUIjb-19" style="edgeStyle=orthogonalEdgeStyle;rounded=0;orthogonalLoop=1;jettySize=auto;html=1;entryX=0;entryY=0.5;entryDx=0;entryDy=0;" edge="1" parent="1" source="wD7Xk6TjG6TiRgrZUIjb-3" target="wD7Xk6TjG6TiRgrZUIjb-7">
          <mxGeometry relative="1" as="geometry" />
        </mxCell>
        <mxCell id="wD7Xk6TjG6TiRgrZUIjb-20" style="edgeStyle=orthogonalEdgeStyle;rounded=0;orthogonalLoop=1;jettySize=auto;html=1;entryX=0;entryY=0.5;entryDx=0;entryDy=0;" edge="1" parent="1" source="wD7Xk6TjG6TiRgrZUIjb-3" target="wD7Xk6TjG6TiRgrZUIjb-2">
          <mxGeometry relative="1" as="geometry" />
        </mxCell>
        <mxCell id="wD7Xk6TjG6TiRgrZUIjb-3" value="USER" style="shape=umlActor;verticalLabelPosition=top;verticalAlign=bottom;html=1;outlineConnect=0;flipV=0;flipH=0;labelPosition=left;align=right;" vertex="1" parent="1">
          <mxGeometry x="255" y="101" width="30" height="60" as="geometry" />
        </mxCell>
        <mxCell id="wD7Xk6TjG6TiRgrZUIjb-18" style="edgeStyle=orthogonalEdgeStyle;rounded=0;orthogonalLoop=1;jettySize=auto;html=1;entryX=0;entryY=0.5;entryDx=0;entryDy=0;" edge="1" parent="1" source="wD7Xk6TjG6TiRgrZUIjb-7" target="wD7Xk6TjG6TiRgrZUIjb-16">
          <mxGeometry relative="1" as="geometry" />
        </mxCell>
        <mxCell id="wD7Xk6TjG6TiRgrZUIjb-7" value="&lt;b&gt;doctorId&lt;/b&gt;" style="text;html=1;align=center;verticalAlign=middle;whiteSpace=wrap;rounded=0;" vertex="1" parent="1">
          <mxGeometry x="371" y="174" width="60" height="30" as="geometry" />
        </mxCell>
        <mxCell id="wD7Xk6TjG6TiRgrZUIjb-28" style="edgeStyle=orthogonalEdgeStyle;rounded=0;orthogonalLoop=1;jettySize=auto;html=1;" edge="1" parent="1" source="wD7Xk6TjG6TiRgrZUIjb-10" target="wD7Xk6TjG6TiRgrZUIjb-22">
          <mxGeometry relative="1" as="geometry" />
        </mxCell>
        <mxCell id="wD7Xk6TjG6TiRgrZUIjb-33" style="edgeStyle=orthogonalEdgeStyle;rounded=0;orthogonalLoop=1;jettySize=auto;html=1;entryX=0.5;entryY=0;entryDx=0;entryDy=0;" edge="1" parent="1" source="wD7Xk6TjG6TiRgrZUIjb-10" target="wD7Xk6TjG6TiRgrZUIjb-31">
          <mxGeometry relative="1" as="geometry" />
        </mxCell>
        <mxCell id="wD7Xk6TjG6TiRgrZUIjb-10" value="GET request&amp;nbsp;&lt;div&gt;&lt;br&gt;&lt;div&gt;&lt;b&gt;patient-service&lt;/b&gt;&lt;/div&gt;&lt;/div&gt;&lt;div&gt;&lt;b&gt;&lt;br&gt;&lt;/b&gt;&lt;/div&gt;&lt;div&gt;&lt;b&gt;&quot;is patientId valid?&quot;&lt;/b&gt;&lt;/div&gt;" style="shape=process;whiteSpace=wrap;html=1;backgroundOutline=1;" vertex="1" parent="1">
          <mxGeometry x="557" y="21" width="192" height="110" as="geometry" />
        </mxCell>
        <mxCell id="wD7Xk6TjG6TiRgrZUIjb-27" style="edgeStyle=orthogonalEdgeStyle;rounded=0;orthogonalLoop=1;jettySize=auto;html=1;" edge="1" parent="1" source="wD7Xk6TjG6TiRgrZUIjb-16" target="wD7Xk6TjG6TiRgrZUIjb-23">
          <mxGeometry relative="1" as="geometry" />
        </mxCell>
        <mxCell id="wD7Xk6TjG6TiRgrZUIjb-32" style="edgeStyle=orthogonalEdgeStyle;rounded=0;orthogonalLoop=1;jettySize=auto;html=1;entryX=0.5;entryY=1;entryDx=0;entryDy=0;" edge="1" parent="1" source="wD7Xk6TjG6TiRgrZUIjb-16" target="wD7Xk6TjG6TiRgrZUIjb-31">
          <mxGeometry relative="1" as="geometry" />
        </mxCell>
        <mxCell id="wD7Xk6TjG6TiRgrZUIjb-16" value="GET request&amp;nbsp;&lt;div&gt;&lt;br&gt;&lt;/div&gt;&lt;div&gt;&lt;b&gt;doctor-service&lt;/b&gt;&lt;/div&gt;&lt;div&gt;&lt;b&gt;&lt;br&gt;&lt;/b&gt;&lt;/div&gt;&lt;div&gt;&lt;b&gt;&quot;is doctorId valid?&quot;&lt;/b&gt;&lt;/div&gt;" style="shape=process;whiteSpace=wrap;html=1;backgroundOutline=1;" vertex="1" parent="1">
          <mxGeometry x="557" y="134" width="192" height="110" as="geometry" />
        </mxCell>
        <mxCell id="wD7Xk6TjG6TiRgrZUIjb-21" value="&lt;b&gt;&lt;font style=&quot;font-size: 19px;&quot;&gt;VALIDATION&lt;/font&gt;&lt;/b&gt;" style="text;html=1;align=center;verticalAlign=middle;whiteSpace=wrap;rounded=0;" vertex="1" parent="1">
          <mxGeometry x="407" y="114" width="60" height="30" as="geometry" />
        </mxCell>
        <mxCell id="wD7Xk6TjG6TiRgrZUIjb-22" value="false&lt;span style=&quot;color: rgba(0, 0, 0, 0); font-family: monospace; font-size: 0px; text-align: start; text-wrap-mode: nowrap;&quot;&gt;%3CmxGraphModel%3E%3Croot%3E%3CmxCell%20id%3D%220%22%2F%3E%3CmxCell%20id%3D%221%22%20parent%3D%220%22%2F%3E%3CmxCell%20id%3D%222%22%20value%3D%22GET%20request%20%2F%20patient-service%22%20style%3D%22shape%3Dprocess%3BwhiteSpace%3Dwrap%3Bhtml%3D1%3BbackgroundOutline%3D1%3B%22%20vertex%3D%221%22%20parent%3D%221%22%3E%3CmxGeometry%20x%3D%22536%22%20y%3D%22-72%22%20width%3D%22192%22%20height%3D%22110%22%20as%3D%22geometry%22%2F%3E%3C%2FmxCell%3E%3C%2Froot%3E%3C%2FmxGraphModel%3E&lt;/span&gt;" style="text;html=1;align=center;verticalAlign=middle;whiteSpace=wrap;rounded=0;" vertex="1" parent="1">
          <mxGeometry x="467" y="25" width="60" height="30" as="geometry" />
        </mxCell>
        <mxCell id="wD7Xk6TjG6TiRgrZUIjb-30" style="edgeStyle=orthogonalEdgeStyle;rounded=0;orthogonalLoop=1;jettySize=auto;html=1;" edge="1" parent="1" source="wD7Xk6TjG6TiRgrZUIjb-23" target="wD7Xk6TjG6TiRgrZUIjb-3">
          <mxGeometry relative="1" as="geometry" />
        </mxCell>
        <mxCell id="wD7Xk6TjG6TiRgrZUIjb-23" value="false&lt;span style=&quot;color: rgba(0, 0, 0, 0); font-family: monospace; font-size: 0px; text-align: start; text-wrap-mode: nowrap;&quot;&gt;%3CmxGraphModel%3E%3Croot%3E%3CmxCell%20id%3D%220%22%2F%3E%3CmxCell%20id%3D%221%22%20parent%3D%220%22%2F%3E%3CmxCell%20id%3D%222%22%20value%3D%22GET%20request%20%2F%20patient-service%22%20style%3D%22shape%3Dprocess%3BwhiteSpace%3Dwrap%3Bhtml%3D1%3BbackgroundOutline%3D1%3B%22%20vertex%3D%221%22%20parent%3D%221%22%3E%3CmxGeometry%20x%3D%22536%22%20y%3D%22-72%22%20width%3D%22192%22%20height%3D%22110%22%20as%3D%22geometry%22%2F%3E%3C%2FmxCell%3E%3C%2Froot%3E%3C%2FmxGraphModel%3E&lt;/span&gt;" style="text;html=1;align=center;verticalAlign=middle;whiteSpace=wrap;rounded=0;" vertex="1" parent="1">
          <mxGeometry x="464" y="204" width="60" height="30" as="geometry" />
        </mxCell>
        <mxCell id="wD7Xk6TjG6TiRgrZUIjb-29" style="edgeStyle=orthogonalEdgeStyle;rounded=0;orthogonalLoop=1;jettySize=auto;html=1;entryX=0.5;entryY=0;entryDx=0;entryDy=0;entryPerimeter=0;" edge="1" parent="1" source="wD7Xk6TjG6TiRgrZUIjb-22" target="wD7Xk6TjG6TiRgrZUIjb-3">
          <mxGeometry relative="1" as="geometry" />
        </mxCell>
        <mxCell id="wD7Xk6TjG6TiRgrZUIjb-46" value="" style="edgeStyle=orthogonalEdgeStyle;rounded=0;orthogonalLoop=1;jettySize=auto;html=1;" edge="1" parent="1" source="wD7Xk6TjG6TiRgrZUIjb-31" target="wD7Xk6TjG6TiRgrZUIjb-45">
          <mxGeometry relative="1" as="geometry" />
        </mxCell>
        <mxCell id="wD7Xk6TjG6TiRgrZUIjb-31" value="true" style="text;html=1;align=center;verticalAlign=middle;whiteSpace=wrap;rounded=0;" vertex="1" parent="1">
          <mxGeometry x="779" y="116" width="60" height="30" as="geometry" />
        </mxCell>
        <mxCell id="wD7Xk6TjG6TiRgrZUIjb-42" style="edgeStyle=orthogonalEdgeStyle;rounded=0;orthogonalLoop=1;jettySize=auto;html=1;entryX=0.5;entryY=1;entryDx=0;entryDy=0;" edge="1" parent="1" source="wD7Xk6TjG6TiRgrZUIjb-35" target="wD7Xk6TjG6TiRgrZUIjb-38">
          <mxGeometry relative="1" as="geometry" />
        </mxCell>
        <mxCell id="wD7Xk6TjG6TiRgrZUIjb-35" value="Recognize patientId and doctorId" style="swimlane;whiteSpace=wrap;html=1;" vertex="1" parent="1">
          <mxGeometry x="205" y="-27" width="862" height="312" as="geometry">
            <mxRectangle x="203" y="-18" width="214" height="26" as="alternateBounds" />
          </mxGeometry>
        </mxCell>
        <mxCell id="wD7Xk6TjG6TiRgrZUIjb-45" value="Validation ending and the services keeps running" style="text;html=1;align=center;verticalAlign=middle;whiteSpace=wrap;rounded=0;" vertex="1" parent="wD7Xk6TjG6TiRgrZUIjb-35">
          <mxGeometry x="671" y="127" width="174" height="62" as="geometry" />
        </mxCell>
        <mxCell id="wD7Xk6TjG6TiRgrZUIjb-43" style="edgeStyle=orthogonalEdgeStyle;rounded=0;orthogonalLoop=1;jettySize=auto;html=1;" edge="1" parent="1" source="wD7Xk6TjG6TiRgrZUIjb-38" target="wD7Xk6TjG6TiRgrZUIjb-1">
          <mxGeometry relative="1" as="geometry" />
        </mxCell>
        <mxCell id="wD7Xk6TjG6TiRgrZUIjb-38" value="CREATE APPOINTMENT" style="rounded=1;whiteSpace=wrap;html=1;fillColor=#b1ddf0;strokeColor=#10739e;" vertex="1" parent="1">
          <mxGeometry x="552.5" y="-179" width="167" height="85" as="geometry" />
        </mxCell>
      </root>
    </mxGraphModel>
  </diagram>
</mxfile>
